# xmcd
#
# Track frame offsets:
#	150
#	19089
#	36351
#	62385
#	83457
#	100631
#	116081
#	145016
#
# Disc length: 2269 seconds
#
# Revision: 0
# Processed by: cddbd v1.5.2PL0 Copyright (c) Steve Scherf et al.
# Submitted via: EasyCDDAExtractor 4.5.2.1
#
DISCID=5808db08
DTITLE=ROBBEN FORD - TALK TO YOUR DAUGHTER
DYEAR=1988
DGENRE=Blues
TTITLE0=TALK TO YOUR DAUGHTER
TTITLE1=WILD ABOUT YOU
TTITLE2=HELP THE POOR
TTITLE3=AIN'T GOT NOTHIN BUT THE BLUES
TTITLE4=BORN UNDER A BAD SINGN
TTITLE5=I GOT OVER IT
TTITLE6=REVELATION
TTITLE7=CAN'T LETHER GO
EXTD=
EXTT0=
EXTT1=
EXTT2=
EXTT3=
EXTT4=
EXTT5=
EXTT6=
EXTT7=
PLAYORDER=
